REM DIRINDEX 1\2\5,1\2\6,1\2\7,1\2\8,1\3\9,1\3\10,1\3\11,1\4\12,1\4\13,1\4\14,1\4\15,1\4\16
REM DIRNAME cjc034,folder01,folder02,folder03,folder04,folder05,folder06,folder07,folder08,folder09,folder10,folder11,folder12,folder13,folder14,folder15
TITLE ""
FILE "1200_sec04_1362_1369.mp3" MP3
  TRACK 01 AUDIO
    TITLE "0:"
    INDEX 01 00:00:00
  TRACK 02 AUDIO
    TITLE "16:cjc034_09181"
    INDEX 01 00:00:19
  TRACK 03 AUDIO
    TITLE "0:"
    INDEX 01 00:05:22
  TRACK 04 AUDIO
    TITLE "12:cjc034_09182"
    INDEX 01 00:06:22
  TRACK 05 AUDIO
    TITLE "0:"
    INDEX 01 00:07:35
  TRACK 06 AUDIO
    TITLE "13:cjc034_09183"
    INDEX 01 00:07:70
  TRACK 07 AUDIO
    TITLE "0:"
    INDEX 01 00:08:68
  TRACK 08 AUDIO
    TITLE "14:cjc034_09184"
    INDEX 01 00:09:26
  TRACK 09 AUDIO
    TITLE "0:"
    INDEX 01 00:10:39
  TRACK 10 AUDIO
    TITLE "15:cjc034_09185"
    INDEX 01 00:10:72
  TRACK 11 AUDIO
    TITLE "0:"
    INDEX 01 00:14:15
  TRACK 12 AUDIO
    TITLE "12:cjc034_09186"
    INDEX 01 00:15:46
  TRACK 13 AUDIO
    TITLE "0:"
    INDEX 01 00:16:55
  TRACK 14 AUDIO
    TITLE "13:cjc034_09187"
    INDEX 01 00:17:10
  TRACK 15 AUDIO
    TITLE "0:"
    INDEX 01 00:20:41
  TRACK 16 AUDIO
    TITLE "14:cjc034_09188"
    INDEX 01 00:21:00
  TRACK 17 AUDIO
    TITLE "0:"
    INDEX 01 00:22:05
  TRACK 18 AUDIO
    TITLE "15:cjc034_09189"
    INDEX 01 00:22:38
  TRACK 19 AUDIO
    TITLE "0:"
    INDEX 01 00:26:30
  TRACK 20 AUDIO
    TITLE "12:cjc034_09190"
    INDEX 01 00:27:65
  TRACK 21 AUDIO
    TITLE "0:"
    INDEX 01 00:28:72
  TRACK 22 AUDIO
    TITLE "13:cjc034_09191"
    INDEX 01 00:29:33
  TRACK 23 AUDIO
    TITLE "0:"
    INDEX 01 00:34:36
  TRACK 24 AUDIO
    TITLE "14:cjc034_09192"
    INDEX 01 00:34:69
  TRACK 25 AUDIO
    TITLE "0:"
    INDEX 01 00:36:03
  TRACK 26 AUDIO
    TITLE "15:cjc034_09193"
    INDEX 01 00:36:36
  TRACK 27 AUDIO
    TITLE "0:"
    INDEX 01 00:40:73
  TRACK 28 AUDIO
    TITLE "16:cjc034_09194"
    INDEX 01 00:42:33
  TRACK 29 AUDIO
    TITLE "0:"
    INDEX 01 00:45:45
  TRACK 30 AUDIO
    TITLE "12:cjc034_09195"
    INDEX 01 00:46:49
  TRACK 31 AUDIO
    TITLE "0:"
    INDEX 01 00:47:48
  TRACK 32 AUDIO
    TITLE "13:cjc034_09196"
    INDEX 01 00:48:06
  TRACK 33 AUDIO
    TITLE "0:"
    INDEX 01 00:51:38
  TRACK 34 AUDIO
    TITLE "14:cjc034_09197"
    INDEX 01 00:51:71
  TRACK 35 AUDIO
    TITLE "0:"
    INDEX 01 00:52:71
  TRACK 36 AUDIO
    TITLE "15:cjc034_09198"
    INDEX 01 00:53:29
  TRACK 37 AUDIO
    TITLE "0:"
    INDEX 01 00:57:60
  TRACK 38 AUDIO
    TITLE "12:cjc034_09199"
    INDEX 01 00:59:20
  TRACK 39 AUDIO
    TITLE "0:"
    INDEX 01 01:00:19
  TRACK 40 AUDIO
    TITLE "13:cjc034_09200"
    INDEX 01 01:00:51
  TRACK 41 AUDIO
    TITLE "0:"
    INDEX 01 01:04:72
  TRACK 42 AUDIO
    TITLE "14:cjc034_09201"
    INDEX 01 01:05:34
  TRACK 43 AUDIO
    TITLE "0:"
    INDEX 01 01:06:36
  TRACK 44 AUDIO
    TITLE "15:cjc034_09202"
    INDEX 01 01:06:65
  TRACK 45 AUDIO
    TITLE "0:"
    INDEX 01 01:11:51
  TRACK 46 AUDIO
    TITLE "12:cjc034_09203"
    INDEX 01 01:13:12
  TRACK 47 AUDIO
    TITLE "0:"
    INDEX 01 01:14:12
  TRACK 48 AUDIO
    TITLE "13:cjc034_09204"
    INDEX 01 01:14:45
  TRACK 49 AUDIO
    TITLE "0:"
    INDEX 01 01:18:58
  TRACK 50 AUDIO
    TITLE "14:cjc034_09205"
    INDEX 01 01:19:19
  TRACK 51 AUDIO
    TITLE "0:"
    INDEX 01 01:20:18
  TRACK 52 AUDIO
    TITLE "15:cjc034_09206"
    INDEX 01 01:20:53
  TRACK 53 AUDIO
    TITLE "0:"
    INDEX 01 01:23:73
  TRACK 54 AUDIO
    TITLE "12:cjc034_09207"
    INDEX 01 01:25:33
  TRACK 55 AUDIO
    TITLE "0:"
    INDEX 01 01:26:36
  TRACK 56 AUDIO
    TITLE "13:cjc034_09208"
    INDEX 01 01:26:68
  TRACK 57 AUDIO
    TITLE "0:"
    INDEX 01 01:28:53
  TRACK 58 AUDIO
    TITLE "14:cjc034_09209"
    INDEX 01 01:29:11
  TRACK 59 AUDIO
    TITLE "0:"
    INDEX 01 01:30:15
  TRACK 60 AUDIO
    TITLE "15:cjc034_09210"
    INDEX 01 01:30:46
  TRACK 61 AUDIO
    TITLE "0:"
    INDEX 01 01:34:48
  TRACK 62 AUDIO
    TITLE "12:cjc034_09211"
    INDEX 01 01:36:07
  TRACK 63 AUDIO
    TITLE "0:"
    INDEX 01 01:37:21
  TRACK 64 AUDIO
    TITLE "13:cjc034_09212"
    INDEX 01 01:37:54
  TRACK 65 AUDIO
    TITLE "0:"
    INDEX 01 01:39:39
  TRACK 66 AUDIO
    TITLE "14:cjc034_09213"
    INDEX 01 01:39:74
  TRACK 67 AUDIO
    TITLE "0:"
    INDEX 01 01:41:12
  TRACK 68 AUDIO
    TITLE "15:cjc034_09214"
    INDEX 01 01:41:46
  TRACK 69 AUDIO
    TITLE "0:"
    INDEX 01 01:47:03
